<svg width="160px" height="160px" viewBox="0 0 160 160" >
  <defs>
    <clipPath id="stampClip">
        <path d="M134.5,23.8c0-2.8,2.3-5,5-5v-3.9c-2.8,0-5-2.2-5-5c0-2.8,2.3-5,5-5v-5.4H131c0,2.8-2.3,5-5,5c-2.8,0-5.1-2.2-5.1-5H117
        c0,2.8-2.3,5-5,5s-5.1-2.2-5.1-5H103c0,2.8-2.3,5-5,5c-2.8,0-5-2.2-5-5H89c0,2.8-2.3,5-5,5c-2.8,0-5.1-2.2-5.1-5H75c0,2.8-2.3,5-5,5
        c-2.8,0-5-2.2-5-5H61c0,2.8-2.3,5-5.1,5c-2.8,0-5-2.2-5-5H47c0,2.8-2.3,5-5.1,5c-2.8,0-5.1-2.2-5.1-5H33c0,2.8-2.3,5-5,5
        c-2.8,0-5.1-2.2-5.1-5H19c0,2.8-2.3,5-5.1,5c-2.8,0-5.1-2.2-5.1-5h-9v5.4c0.2,0,0.3,0,0.5,0c2.8,0,5.1,2.3,5.1,5c0,2.8-2.3,5-5.1,5
        c-0.2,0-0.3,0-0.5,0v3.9c0.2,0,0.3,0,0.5,0c2.8,0,5.1,2.2,5.1,5c0,2.8-2.3,5-5.1,5c-0.2,0-0.3,0-0.5,0v3.9c0.2,0,0.3,0,0.5,0
        c2.8,0,5.1,2.3,5.1,5c0,2.8-2.3,5-5.1,5c-0.2,0-0.3,0-0.5,0v3.9c0.2,0,0.3,0,0.5,0c2.8,0,5.1,2.3,5.1,5c0,2.8-2.3,5-5.1,5
        c-0.2,0-0.3,0-0.5,0v3.9c0.2,0,0.3,0,0.5,0c2.8,0,5.1,2.2,5.1,5c0,2.8-2.3,5-5.1,5c-0.2,0-0.3,0-0.5,0v3.9c0.2,0,0.3,0,0.5,0
        c2.8,0,5.1,2.2,5.1,5c0,2.8-2.3,5-5.1,5c-0.2,0-0.3,0-0.5,0v3.9c0.2,0,0.3,0,0.5,0c2.8,0,5.1,2.2,5.1,5c0,2.8-2.3,5-5.1,5
        c-0.2,0-0.3,0-0.5,0v3.9c0.2,0,0.3,0,0.5,0c2.8,0,5.1,2.3,5.1,5c0,2.8-2.3,5-5.1,5c-0.2,0-0.3,0-0.5,0v3.9c0.2,0,0.3,0,0.5,0
        c2.8,0,5.1,2.3,5.1,5c0,2.8-2.3,5-5.1,5c-0.2,0-0.3,0-0.5,0v3.9c0.2,0,0.3,0,0.5,0c2.8,0,5.1,2.3,5.1,5c0,2.8-2.3,5-5.1,5
        c-0.2,0-0.3,0-0.5,0v3.9c0.2,0,0.3,0,0.5,0c2.8,0,5.1,2.3,5.1,5c0,2.8-2.3,5-5.1,5c-0.2,0-0.3,0-0.5,0v5.4h9l0,0c0-2.8,2.3-5,5.1-5
        c2.8,0,5.1,2.2,5.1,5l0,0h3.9l0,0c0-2.8,2.3-5,5.1-5c2.8,0,5,2.2,5,5l0,0h3.9l0,0c0-2.8,2.3-5,5.1-5s5.1,2.2,5.1,5l0,0h3.9l0,0
        c0-2.8,2.3-5,5-5c2.8,0,5.1,2.2,5.1,5l0,0h3.9l0,0c0-2.8,2.3-5,5-5c2.8,0,5,2.2,5,5l0,0h3.9l0,0c0-2.8,2.3-5,5.1-5c2.8,0,5,2.2,5,5
        l0,0h3.9l0,0c0-2.8,2.3-5,5-5c2.8,0,5.1,2.2,5.1,5l0,0h3.9l0,0c0-2.8,2.3-5,5-5s5.1,2.2,5.1,5l0,0h3.9l0,0c0-2.8,2.3-5,5-5
        c2.8,0,5,2.2,5,5l0,0h8.5v-5.4c-2.8,0-5-2.3-5-5c0-2.8,2.3-5,5-5v-3.9c-2.8,0-5-2.2-5-5c0-2.8,2.3-5,5-5v-3.9c-2.8,0-5-2.3-5-5
        c0-2.8,2.3-5,5-5v-3.9c-2.8,0-5-2.2-5-5c0-2.8,2.3-5,5-5v-3.9c-2.8,0-5-2.2-5-5c0-2.8,2.3-5,5-5v-3.9c-2.8,0-5-2.2-5-5
        c0-2.8,2.3-5,5-5v-3.9c-2.8,0-5-2.2-5-5c0-2.8,2.3-5,5-5v-3.9c-2.8,0-5-2.2-5-5c0-2.8,2.3-5,5-5v-3.9c-2.8,0-5-2.3-5-5
        c0-2.8,2.3-5,5-5v-3.9C136.7,28.8,134.5,26.5,134.5,23.8z"/>

        </clipPath>
    </defs>
</svg>

