<?xml version="1.0" encoding="utf-8"?>
<!-- Generator: Adobe Illustrator 13.0.0, SVG Export Plug-In . SVG Version: 6.00 Build 14948)  -->
<!DOCTYPE svg PUBLIC "-//W3C//DTD SVG 1.1//EN" "http://www.w3.org/Graphics/SVG/1.1/DTD/svg11.dtd">
<svg version="1.1" id="Layer_1" xmlns="http://www.w3.org/2000/svg" xmlns:xlink="http://www.w3.org/1999/xlink" x="0px" y="0px"
	 width="600px" height="13px" viewBox="-292.9 0.8 600 13" enable-background="new -292.9 0.8 600 13" xml:space="preserve">
<path d="M144.9,13.5c-7.2,0-14.5,0-21.6,0c-9.7,0-19.3-0.4-29-0.5c-9.1-0.1-18-0.2-27.1-0.5c-4.5-0.2-9,0-13.5-0.1
	c-4.3-0.1-14.2,0.5-18.5,0.5c-8.9-0.2-159.6,0.8-168.5,0.1c-2.7-0.2-19.5-2.5-13.4-8.1c2.7-2.4,7-3,10.5-2.7
	c3.6,0.3,6.8,0.8,10.3,1.2c9,0.7,165.5,0.1,174.3,0.3c36.1,0.8,72.1,1.1,108.1,1.1c35.1,0,219.6-1,254.7-1.8
	c8.7-0.2,17.4-0.2,26-0.7c4-0.2,9.4-0.8,13,1.2c2.4,1.3,2.4,3.6,0.3,5.2c-2.9,2.3-7.5,1.8-10.9,2c-4.3,0.2-8.5,0.5-12.8,0.5
	c-8.7,0.1-166.8,0.4-175.6,0.4c-17.6,0.1-35.3,1.4-53,1.3c-8.7,0-17.3,0.5-26,0.6C163.2,13.6,154.1,13.5,144.9,13.5"/>
</svg>
