<?xml version="1.0" encoding="utf-8"?>
<svg version="1.1" xmlns="http://www.w3.org/2000/svg" xmlns:xlink="http://www.w3.org/1999/xlink" x="0px" y="0px" width="600px"
	 height="12px" viewBox="0 0 600 12" enable-background="new 0 0 600 12" xml:space="preserve">
	<path d="M292,12c-57.6,0-115.2-0.6-172.8-0.4c-26.5,0.1-53,0.2-79.5,0.2c-2.9,0-47.5-0.7-39.2-8c6.3-5.4,32.3-1.2,41.9-1.2
		c19.4,0.1,38.8,0.1,58.2,0.1c31.6,0,63.3-0.7,95,0c100.5,2.1,201,0.8,301.5,0c15.5-0.1,31-0.3,46.5-0.5c4.6-0.1,9.1-0.1,13.7-0.2
		c10.5-0.2,30.5-4.6,40,0.5c7.4,3.8-5.6,6.8-7.9,6.8c-5.3,0.1-10.6,0.5-15.8,0.6c-3.2,0-6.3,0-9.5,0c-13.6,0-27.2,0.1-40.8,0.1
		C446.2,10.1,369.1,12,292,12"/></svg>
