<?xml version="1.0" encoding="utf-8"?>
<!-- Generator: Adobe Illustrator 13.0.0, SVG Export Plug-In . SVG Version: 6.00 Build 14948)  -->
<!DOCTYPE svg PUBLIC "-//W3C//DTD SVG 1.1//EN" "http://www.w3.org/Graphics/SVG/1.1/DTD/svg11.dtd">
<svg version="1.1" id="Layer_1" xmlns="http://www.w3.org/2000/svg" xmlns:xlink="http://www.w3.org/1999/xlink" x="0px" y="0px"
	 width="305px" height="15px" viewBox="-144.6 0.5 305 15" enable-background="new -144.6 0.5 305 15" xml:space="preserve">
<path d="M1.7,14.9c-7.2,0-14.5,0-21.7,0c-9.7,0-19.4-0.4-29.1-0.5c-9.1-0.1-18.1-0.2-27.2-0.5c-4.5-0.2-9,0-13.5-0.1
	c-4.3-0.1-8.6-0.6-12.9-0.6c-8.9-0.2-17.8-0.7-26.7-1.3c-2.7-0.2-19.6-2.5-13.4-8c2.7-2.4,7-3,10.5-2.7c3.6,0.3,6.8,2.3,10.3,2.7
	C-113,4.6-104,5-95.1,5.2C-58.9,6-22.8,6.3,13.4,6.3c35.2,0,70.3-1,105.5-1.8c8.7-0.2,17.5-0.2,26.1-0.7c4-0.2,9.4-0.8,13,1.2
	c2.4,1.3,2.4,3.5,0.3,5.1c-2.9,2.3-7.5,1.8-10.9,2c-4.3,0.2-8.5,0.5-12.8,0.5c-8.7,0.1-17.4,0.4-26.2,0.4
	c-17.7,0.1-35.4,1.4-53.2,1.3c-8.7,0-17.4,0.5-26.1,0.6C20.1,15,10.9,14.9,1.7,14.9"/>
</svg>
