<?xml version="1.0" encoding="utf-8"?>
<!-- Generator: Adobe Illustrator 13.0.0, SVG Export Plug-In . SVG Version: 6.00 Build 14948)  -->
<!DOCTYPE svg PUBLIC "-//W3C//DTD SVG 1.1//EN" "http://www.w3.org/Graphics/SVG/1.1/DTD/svg11.dtd">
<svg version="1.1" id="Layer_1" xmlns="http://www.w3.org/2000/svg" xmlns:xlink="http://www.w3.org/1999/xlink" x="0px" y="0px"
	 width="139.8px" height="160px" viewBox="0 0 139.8 160" enable-background="new 0 0 139.8 160" xml:space="preserve">
<path opacity="0.1" d="M144.5,24.8c0-2.8,2.3-5,5-5V16c-2.8,0-5-2.2-5-5s2.3-5,5-5V0.7h-8.4c0,2.8-2.3,5-5,5c-2.8,0-5.1-2.2-5.1-5
	h-3.9c0,2.8-2.3,5-5,5s-5.1-2.2-5.1-5h-3.9c0,2.8-2.3,5-5,5c-2.8,0-5-2.2-5-5h-4c0,2.8-2.3,5-5,5c-2.8,0-5.1-2.2-5.1-5h-3.9
	c0,2.8-2.3,5-5,5c-2.8,0-5-2.2-5-5h-4c0,2.8-2.3,5-5.1,5s-5-2.2-5-5h-3.9c0,2.8-2.3,5-5.1,5c-2.8,0-5.1-2.2-5.1-5h-3.8
	c0,2.8-2.3,5-5,5c-2.8,0-5.1-2.2-5.1-5h-3.9c0,2.8-2.3,5-5.1,5s-5.1-2.2-5.1-5h-8.9v5.4c0.2,0,0.3,0,0.5,0c2.8,0,5.1,2.3,5.1,5
	c0,2.8-2.3,5-5.1,5c-0.2,0-0.3,0-0.5,0v3.9c0.2,0,0.3,0,0.5,0c2.8,0,5.1,2.2,5.1,5s-2.3,5-5.1,5c-0.2,0-0.3,0-0.5,0v3.9
	c0.2,0,0.3,0,0.5,0c2.8,0,5.1,2.3,5.1,5c0,2.8-2.3,5-5.1,5c-0.2,0-0.3,0-0.5,0v3.9c0.2,0,0.3,0,0.5,0c2.8,0,5.1,2.3,5.1,5
	c0,2.8-2.3,5-5.1,5c-0.2,0-0.3,0-0.5,0v3.9c0.2,0,0.3,0,0.5,0c2.8,0,5.1,2.2,5.1,5c0,2.8-2.3,5-5.1,5c-0.2,0-0.3,0-0.5,0v3.9
	c0.2,0,0.3,0,0.5,0c2.8,0,5.1,2.2,5.1,5c0,2.8-2.3,5-5.1,5c-0.2,0-0.3,0-0.5,0v3.9c0.2,0,0.3,0,0.5,0c2.8,0,5.1,2.2,5.1,5
	s-2.3,5-5.1,5c-0.2,0-0.3,0-0.5,0v3.9c0.2,0,0.3,0,0.5,0c2.8,0,5.1,2.3,5.1,5c0,2.8-2.3,5-5.1,5c-0.2,0-0.3,0-0.5,0v3.9
	c0.2,0,0.3,0,0.5,0c2.8,0,5.1,2.3,5.1,5c0,2.8-2.3,5-5.1,5c-0.2,0-0.3,0-0.5,0v3.9c0.2,0,0.3,0,0.5,0c2.8,0,5.1,2.3,5.1,5
	c0,2.8-2.3,5-5.1,5c-0.2,0-0.3,0-0.5,0v3.9c0.2,0,0.3,0,0.5,0c2.8,0,5.1,2.3,5.1,5c0,2.8-2.3,5-5.1,5c-0.2,0-0.3,0-0.5,0v5.4h8.9
	l0,0c0-2.8,2.3-5,5.1-5s5.1,2.2,5.1,5l0,0h3.9l0,0c0-2.8,2.3-5,5.1-5s5,2.2,5,5l0,0h3.9l0,0c0-2.8,2.3-5,5.1-5c2.8,0,5.1,2.2,5.1,5
	l0,0h3.9l0,0c0-2.8,2.3-5,5-5c2.8,0,5.1,2.2,5.1,5l0,0h3.9l0,0c0-2.8,2.3-5,5-5c2.8,0,5,2.2,5,5l0,0h3.9l0,0c0-2.8,2.3-5,5.1-5
	c2.8,0,5,2.2,5,5l0,0h3.9l0,0c0-2.8,2.3-5,5-5c2.8,0,5.1,2.2,5.1,5l0,0h3.9l0,0c0-2.8,2.3-5,5-5c2.7,0,5.1,2.2,5.1,5l0,0h3.9l0,0
	c0-2.8,2.3-5,5-5c2.8,0,5,2.2,5,5l0,0h8.4v-5.4c-2.8,0-5-2.3-5-5c0-2.8,2.3-5,5-5v-3.9c-2.8,0-5-2.2-5-5s2.3-5,5-5v-3.9
	c-2.8,0-5-2.3-5-5c0-2.8,2.3-5,5-5v-3.9c-2.8,0-5-2.2-5-5s2.3-5,5-5v-3.9c-2.8,0-5-2.2-5-5s2.3-5,5-5v-3.9c-2.8,0-5-2.2-5-5
	c0-2.8,2.3-5,5-5v-3.9c-2.8,0-5-2.2-5-5c0-2.8,2.3-5,5-5v-3.9c-2.8,0-5-2.2-5-5c0-2.8,2.3-5,5-5v-3.9c-2.8,0-5-2.3-5-5
	c0-2.8,2.3-5,5-5v-3.9C146.7,29.8,144.5,27.5,144.5,24.8z"/>
<path fill="#FFFFFF" d="M143.5,23.8c0-2.8,2.3-5,5-5V15c-2.8,0-5-2.2-5-5s2.3-5,5-5v-5.4h-8.4c0,2.8-2.3,5-5,5c-2.8,0-5.1-2.2-5.1-5
	h-3.9c0,2.8-2.3,5-5,5c-2.7,0-5.1-2.2-5.1-5h-3.9c0,2.8-2.3,5-5,5c-2.8,0-5-2.2-5-5h-4c0,2.8-2.3,5-5,5c-2.8,0-5.1-2.2-5.1-5h-3.9
	c0,2.8-2.3,5-5,5c-2.8,0-5-2.2-5-5h-4c0,2.8-2.3,5-5.1,5c-2.8,0-5-2.2-5-5h-3.9c0,2.8-2.3,5-5.1,5s-5.1-2.2-5.1-5h-3.8
	c0,2.8-2.3,5-5,5c-2.8,0-5.1-2.2-5.1-5h-3.9c0,2.8-2.3,5-5.1,5c-2.8,0-5.1-2.2-5.1-5H9.7v5.4c0.2,0,0.3,0,0.5,0c2.8,0,5.1,2.3,5.1,5
	c0,2.8-2.3,5-5.1,5c-0.2,0-0.3,0-0.5,0v3.9c0.2,0,0.3,0,0.5,0c2.8,0,5.1,2.2,5.1,5s-2.3,5-5.1,5c-0.2,0-0.3,0-0.5,0v3.9
	c0.2,0,0.3,0,0.5,0c2.8,0,5.1,2.3,5.1,5c0,2.8-2.3,5-5.1,5c-0.2,0-0.3,0-0.5,0v3.9c0.2,0,0.3,0,0.5,0c2.8,0,5.1,2.3,5.1,5
	c0,2.8-2.3,5-5.1,5c-0.2,0-0.3,0-0.5,0v3.9c0.2,0,0.3,0,0.5,0c2.8,0,5.1,2.2,5.1,5c0,2.8-2.3,5-5.1,5c-0.2,0-0.3,0-0.5,0v3.9
	c0.2,0,0.3,0,0.5,0c2.8,0,5.1,2.2,5.1,5c0,2.8-2.3,5-5.1,5c-0.2,0-0.3,0-0.5,0v3.9c0.2,0,0.3,0,0.5,0c2.8,0,5.1,2.2,5.1,5
	c0,2.8-2.3,5-5.1,5c-0.2,0-0.3,0-0.5,0v3.9c0.2,0,0.3,0,0.5,0c2.8,0,5.1,2.3,5.1,5c0,2.8-2.3,5-5.1,5c-0.2,0-0.3,0-0.5,0v3.9
	c0.2,0,0.3,0,0.5,0c2.8,0,5.1,2.3,5.1,5c0,2.8-2.3,5-5.1,5c-0.2,0-0.3,0-0.5,0v3.9c0.2,0,0.3,0,0.5,0c2.8,0,5.1,2.3,5.1,5
	c0,2.8-2.3,5-5.1,5c-0.2,0-0.3,0-0.5,0v3.9c0.2,0,0.3,0,0.5,0c2.8,0,5.1,2.3,5.1,5c0,2.8-2.3,5-5.1,5c-0.2,0-0.3,0-0.5,0v5.4h8.9
	l0,0c0-2.8,2.3-5,5.1-5c2.8,0,5.1,2.2,5.1,5l0,0h3.9l0,0c0-2.8,2.3-5,5.1-5c2.8,0,5,2.2,5,5l0,0h3.9l0,0c0-2.8,2.3-5,5.1-5
	c2.8,0,5.1,2.2,5.1,5l0,0h3.9l0,0c0-2.8,2.3-5,5-5c2.8,0,5.1,2.2,5.1,5l0,0h3.9l0,0c0-2.8,2.3-5,5-5c2.8,0,5,2.2,5,5l0,0h3.9l0,0
	c0-2.8,2.3-5,5.1-5s5,2.2,5,5l0,0h3.9l0,0c0-2.8,2.3-5,5-5c2.8,0,5.1,2.2,5.1,5l0,0h3.9l0,0c0-2.8,2.3-5,5-5c2.7,0,5.1,2.2,5.1,5
	l0,0h3.9l0,0c0-2.8,2.3-5,5-5c2.8,0,5,2.2,5,5l0,0h8.4v-5.4c-2.8,0-5-2.3-5-5c0-2.8,2.3-5,5-5v-3.9c-2.8,0-5-2.2-5-5
	c0-2.8,2.3-5,5-5v-3.9c-2.8,0-5-2.3-5-5c0-2.8,2.3-5,5-5v-3.9c-2.8,0-5-2.2-5-5c0-2.8,2.3-5,5-5v-3.9c-2.8,0-5-2.2-5-5
	c0-2.8,2.3-5,5-5v-3.9c-2.8,0-5-2.2-5-5c0-2.8,2.3-5,5-5v-3.9c-2.8,0-5-2.2-5-5c0-2.8,2.3-5,5-5v-3.9c-2.8,0-5-2.2-5-5s2.3-5,5-5
	v-3.9c-2.8,0-5-2.3-5-5c0-2.8,2.3-5,5-5v-3.9C145.7,28.8,143.5,26.5,143.5,23.8z"/>
</svg>
